PathFileType	4	(X/Y/Z)	c:/Users/goper/Files/vsCode/490R/osim_files/C07/C07_SSWS_05.trc
DataRate	CameraRate	NumFrames	NumMarkers	Units                	OrigDataRate	OrigDataStartFrame	OrigNumFrames
250.00	250.00	9	36	mm	250.0	1852	2962
                Frame#	Time	LPSIS			LASIS			LTH1			LTH2			LTH3			LTH4			LLFE			LMFE			LSH1			LSH2			LSH3			LSH4			LLMAL			LMMAL			LCAL			LMTP5			LTOE			LMTP1			RPSIS			RASIS			RTH1			RTH2			RTH3			RTH4			RLFE			RMFE			RSH1			RSH2			RSH3			RSH4			RLMAL			RMMAL			RCAL			RMTP1			RTOE			RMTP5		
		X1	Y1	Z1	X2	Y2	Z2	X3	Y3	Z3	X4	Y4	Z4	X5	Y5	Z5	X6	Y6	Z6	X7	Y7	Z7	X8	Y8	Z8	X9	Y9	Z9	X10	Y10	Z10	X11	Y11	Z11	X12	Y12	Z12	X13	Y13	Z13	X14	Y14	Z14	X15	Y15	Z15	X16	Y16	Z16	X17	Y17	Z17	X18	Y18	Z18	X19	Y19	Z19	X20	Y20	Z20	X21	Y21	Z21	X22	Y22	Z22	X23	Y23	Z23	X24	Y24	Z24	X25	Y25	Z25	X26	Y26	Z26	X27	Y27	Z27	X28	Y28	Z28	X29	Y29	Z29	X30	Y30	Z30	X31	Y31	Z31	X32	Y32	Z32	X33	Y33	Z33	X34	Y34	Z34	X35	Y35	Z35	X36	Y36	Z36

1852	7.40400	447.93365	988.75903	335.76181	281.82190	975.33246	414.16779	302.04010	770.21747	472.43680	267.57111	700.18878	475.74457	230.48840	632.92780	469.37299	195.66664	735.82086	456.34616	199.03841	516.41632	442.36227	178.05698	503.90326	322.61829	156.96811	335.11172	455.37122	150.38481	285.25705	440.57327	118.49573	348.52878	454.78711	104.67397	310.43008	445.45001	68.70288	119.05450	408.94165	40.97948	154.62059	342.44717	93.76216	46.74743	352.01315	-74.81229	79.93501	447.48080	-128.31416	116.75850	401.80066	-110.12148	100.08277	346.13309	442.22702	1001.28534	235.30357	280.74719	967.71741	156.60181	344.79102	820.53473	103.03629	357.89023	742.47821	108.88131	376.68701	663.10748	121.05972	291.81494	733.29749	146.27826	438.05783	494.61676	163.16930	443.43134	508.80249	272.54999	542.31616	331.09531	153.92752	526.45178	277.36365	156.33818	482.67780	318.26694	160.37402	495.71088	276.01465	166.09439	597.97052	116.22615	210.37096	571.18225	122.89343	288.62671	655.35657	66.32433	255.57767	448.74347	41.85815	288.55359	424.66568	52.37774	239.82785	470.28461	42.44689	178.32028
1853	7.40800	443.22791	987.98901	336.33640	277.22107	974.36334	414.45483	298.59128	769.08301	472.56686	264.59174	699.12250	475.83801	227.85950	631.43811	469.46881	192.58836	733.97485	455.69217	196.43117	514.88727	442.49753	175.92903	502.30817	322.41306	151.84039	334.52484	455.62256	144.63454	284.52899	441.36838	113.70587	348.45197	454.56345	99.22566	310.32977	445.52011	60.73514	118.96686	409.57742	34.23552	154.83806	342.61292	85.01952	45.92065	353.15582	-84.03303	82.62196	446.59277	-136.27673	120.33105	400.28265	-117.86458	103.23146	344.83066	437.74542	1000.65350	235.72003	276.13019	967.03571	156.86725	340.80591	820.08472	103.11794	354.03909	742.04016	109.05465	373.03201	662.65417	121.28434	288.10803	732.64838	146.30693	435.17374	494.31479	163.33086	440.31619	508.67822	272.71970	540.39435	331.48196	153.94493	524.94598	277.66821	156.42015	480.82666	318.26169	160.46693	494.13770	276.02026	166.20557	597.42664	116.96862	210.37106	570.76208	123.37497	288.63382	655.09711	67.09301	255.61586	448.75507	41.80291	288.57001	424.70560	52.23065	239.86516	470.22656	42.40926	178.31689
1854	7.41200	438.70450	987.32477	336.67477	272.74121	973.44379	414.76935	295.02188	768.42700	472.37625	261.53888	698.11761	475.90488	225.23140	629.81342	469.64661	189.45305	732.30957	455.01776	193.59894	513.69592	442.54358	172.98523	501.07339	321.98260	167.58350	329.57040	454.24081	139.12357	283.97629	442.16287	109.17558	349.00131	453.89627	93.86900	310.26190	445.57602	53.06870	118.83672	410.09903	27.85128	154.95604	342.76083	76.79467	45.19415	354.19934	-92.68875	85.07360	445.51529	-143.73331	123.81339	398.62613	-124.94596	106.25272	343.42627	433.08728	999.98755	236.17896	271.64896	966.31305	157.08327	336.75812	819.56403	103.25650	350.15134	741.53418	109.25874	369.35004	662.22919	121.50043	284.51843	731.98175	146.30717	432.25180	494.14487	163.42975	437.22968	508.31729	272.77274	538.35657	331.87085	154.05122	523.34698	277.99811	156.53714	478.93161	318.25299	160.55133	492.52783	276.13760	166.24304	596.96411	117.72759	210.33968	570.33215	123.87241	288.57538	654.97528	68.19090	255.54630	448.76321	41.76228	288.55170	424.71536	52.08077	239.90999	470.18222	42.39870	178.30534
1855	7.41600	434.12329	986.68420	337.04007	267.91467	972.54260	415.07889	291.37515	767.27222	472.56580	258.39923	697.17017	475.95389	222.42624	628.53326	469.68759	186.08919	730.55029	454.85840	190.65942	512.45587	442.68204	170.65872	499.54462	321.81705	160.74806	329.98019	454.06686	133.74820	283.54691	442.96255	104.93208	350.29623	452.69617	88.63007	310.20291	445.62335	45.97417	118.72153	410.47559	21.72979	154.85596	343.00882	68.80692	44.45639	355.28757	-100.89013	87.50272	444.62350	-150.68614	126.99412	396.98367	-131.54933	109.05817	342.00403	428.64014	999.38812	236.47124	267.10974	965.62573	157.29510	332.63373	819.09497	103.41801	346.21454	741.08331	109.46449	365.64713	661.83929	121.70367	280.70746	731.28442	146.33438	429.09634	493.83786	163.53203	433.92993	508.18472	272.90100	536.17102	332.28970	154.16467	520.88330	277.92029	156.37291	476.92593	318.23792	160.64336	490.80124	276.29095	166.27661	596.54755	118.47945	210.18182	569.79449	124.45318	288.48569	654.63666	68.82629	255.77106	448.78995	41.70888	288.53696	424.74829	51.96499	239.91473	470.12579	42.36914	178.27261
1856	7.42000	429.47678	986.12708	337.41296	263.23804	971.78314	415.23911	287.80661	766.46906	472.59494	255.15962	696.27643	475.99359	219.57877	627.25806	469.72174	183.03387	729.00940	453.53561	187.64262	511.36459	442.85983	168.14279	498.25684	321.72211	154.12198	330.86673	453.83395	128.40910	283.16669	443.75150	100.84296	351.80453	451.37646	83.53493	310.12918	445.66763	39.33701	118.60573	410.88904	16.14116	154.82516	343.00177	61.64928	43.75122	356.05786	-108.55726	89.65370	443.37997	-157.17735	129.97218	395.17081	-137.65866	111.57316	340.49393	424.05746	998.77875	236.78162	262.47357	964.96997	157.51706	328.56696	818.57898	103.61517	342.31332	740.58032	109.68254	361.92911	661.49091	121.88972	276.69269	730.59674	146.37819	425.99521	493.61487	163.68935	430.59903	507.94662	272.99136	533.80365	332.60617	154.33476	519.11951	278.22144	156.39375	474.81482	318.23599	160.73862	489.02695	276.36591	166.31250	596.07904	119.26420	209.98285	569.21161	125.18551	288.37155	653.95856	72.12047	258.60071	448.72000	41.73217	288.54053	424.75201	51.85143	239.93515	470.04599	42.33009	178.25720
1857	7.42400	424.94037	985.69183	337.76114	258.54269	971.00421	415.42639	284.17731	765.65314	472.58542	251.80685	695.43237	476.03284	216.45929	626.15948	469.74625	179.69785	727.70050	452.98743	184.30310	510.43304	443.01529	165.39391	497.01620	321.72302	146.99748	329.93997	455.06589	123.18306	282.74295	444.38562	96.35146	351.60861	451.35986	78.60969	310.01715	445.71439	33.08470	118.31015	410.92896	10.77045	154.80559	342.89880	54.83948	43.09059	356.65817	-115.74863	91.59026	442.33240	-163.20947	132.51602	393.56857	-143.38646	113.75363	338.99750	419.41730	998.26031	237.06651	257.79788	964.32306	157.72963	323.97964	818.33417	103.94450	338.10800	740.38086	109.94454	358.20206	661.19086	122.05428	272.80060	730.01038	146.43037	422.67545	493.40408	163.77628	427.12280	507.56815	273.02371	531.60706	333.05859	154.28712	517.18292	278.58383	156.40106	472.62161	318.27243	160.82767	486.30710	276.24899	166.39339	595.54028	120.09379	209.77002	568.68378	125.94013	288.28177	653.72046	71.35062	260.56494	448.71191	41.73371	288.49695	424.73483	51.77024	239.92767	469.96259	42.32115	178.19936
1858	7.42800	420.29642	985.19049	338.07123	253.95932	970.29382	415.63110	280.35324	764.95209	472.54245	248.32765	694.63409	476.08017	213.08591	625.21674	469.78281	175.77802	726.69464	454.17206	180.88206	509.67291	443.12488	162.43918	495.80374	321.80826	139.88890	329.34525	455.90375	118.19088	282.17831	444.68887	91.70896	351.32297	451.28656	73.88040	309.84332	445.76923	27.37048	117.92490	410.94098	5.74897	154.63806	342.80109	48.29879	42.19860	357.27051	-122.39605	93.18965	441.12851	-168.79216	134.58676	391.84476	-148.59398	115.58255	337.47675	414.32849	997.47681	237.67294	253.18875	963.71582	157.86572	320.05612	817.84174	104.07294	334.28439	739.89172	110.10992	354.47180	660.94586	122.19301	268.69498	729.34924	146.50401	419.31503	493.13284	163.91037	423.38568	507.38889	273.11581	529.43390	333.63495	154.13190	515.28619	278.99249	156.37283	470.36957	318.35931	160.90024	484.60916	276.49503	166.39906	594.93384	120.97054	209.54303	567.98199	126.76052	288.10284	653.12787	74.32673	258.31113	448.63266	41.74352	288.44370	424.69522	51.68032	239.90150	469.91379	42.30294	178.13780
1859	7.43200	415.74289	984.73346	338.34607	249.27008	969.56573	415.85016	276.64056	764.34064	472.60510	244.70883	693.87769	476.14441	209.59508	624.42688	469.96762	172.07648	725.86707	454.72031	177.34027	508.80823	443.27548	159.35324	494.76428	322.00000	133.14435	328.64301	456.59979	113.50119	281.43192	444.71277	87.46745	351.03085	451.34875	69.36943	309.56046	445.81586	21.91656	117.28725	410.93652	0.81390	154.30338	342.72543	42.37430	41.30451	357.53043	-128.38867	94.07477	439.95813	-173.78777	136.26921	390.21988	-153.37320	117.05731	336.07257	410.22775	997.09375	237.50018	248.59703	963.14050	157.96727	315.90268	817.35120	104.30431	330.33066	739.41797	110.31273	350.71561	660.73340	122.29915	264.62601	728.80164	146.54887	415.88528	492.99136	164.01762	419.65518	507.12308	273.23599	526.96973	334.18130	154.14250	513.24017	279.41739	156.35930	468.08270	318.45667	160.94305	482.69830	276.75549	166.46158	594.26221	121.89680	209.30148	567.20465	127.52721	287.86859	652.75208	75.48692	258.32593	448.58725	41.78714	288.38730	424.63483	51.59789	239.82834	469.81833	42.34314	178.04004
1860	7.43600	411.05167	984.34265	338.68408	244.60062	968.93170	416.13318	272.70645	763.71155	472.65231	240.93719	693.15942	476.23419	206.04384	623.65643	470.26669	168.23318	724.90173	455.05920	173.78720	508.11343	443.40625	155.94025	493.91913	322.09927	126.42894	327.79141	457.57013	109.06876	280.67145	445.05194	83.25179	350.45627	451.33414	65.07276	309.09354	445.79694	16.99611	116.40293	410.74326	-3.55947	153.85202	342.53790	37.04869	40.28117	357.47220	-134.79939	95.10273	439.54294	-178.26880	137.39627	388.82880	-157.71198	118.10355	334.69894	405.72238	996.52039	237.72479	243.69786	962.50403	158.27272	311.59824	816.90466	104.53451	326.21820	738.98663	110.50654	346.82019	660.46143	122.39452	260.41168	728.21808	146.68057	412.46667	492.68930	164.22798	415.89563	506.80392	273.27975	524.33881	334.65573	154.18431	511.11682	279.85974	156.33054	465.75287	318.53778	160.95691	480.78375	277.02313	166.49229	593.52802	122.87492	209.04509	566.57642	128.34663	287.65927	652.30652	76.63477	257.83185	448.56882	41.82124	288.30832	424.59424	51.53897	239.77596	469.75406	42.34186	177.97104
